<?xml version="1.0" encoding="iso-8859-1"?>
<!-- Generator: Adobe Illustrator 19.0.0, SVG Export Plug-In . SVG Version: 6.00 Build 0)  -->
<svg version="1.1" id="Capa_1" xmlns="http://www.w3.org/2000/svg" xmlns:xlink="http://www.w3.org/1999/xlink" x="0px" y="0px"
	 viewBox="0 0 464.346 464.346" style="enable-background:new 0 0 464.346 464.346;" xml:space="preserve">
<g>
	<path style="fill:#F2624C;" d="M338.193,216.992l-1.808-7.792c-15.108-64.93-52.61-122.46-105.92-162.488l-28.648-21.48l9.6-12.8
		l28.64,21.48c56.328,42.293,95.952,103.082,111.912,171.688l1.808,7.8L338.193,216.992z"/>
	<path style="fill:#F2624C;" d="M128.177,255.392h-16v-12c-0.08-76.828,22.663-151.949,65.344-215.832l4.44-6.656l13.312,8.88
		l-4.44,6.656c-40.922,61.25-62.729,133.274-62.656,206.936V255.392z"/>
</g>
<path style="fill:#B20D24;" d="M430.137,219.816c-16.898-17.986-42.826-24.29-66.096-16.072c-12.796,4.864-26.932,4.864-39.728,0
	c-22.784-8.162-48.236-2.267-65.112,15.08c-22.812,22.841-35.44,53.921-35.024,86.2c0.376,66.274,54.406,119.696,120.68,119.32
	s119.696-54.406,119.32-120.68C464.225,272.34,452.006,242.242,430.137,219.816L430.137,219.816z"/>
<path style="fill:#EE2849;" d="M206.137,259.816c-16.898-17.986-42.826-24.29-66.096-16.072c-12.796,4.864-26.932,4.864-39.728,0
	c-22.784-8.162-48.236-2.267-65.112,15.08c-22.812,22.841-35.44,53.921-35.024,86.2c0.376,66.274,54.406,119.696,120.68,119.32
	s119.696-54.406,119.32-120.68C240.225,312.34,228.007,282.242,206.137,259.816L206.137,259.816z"/>
<path style="fill:#1F9342;" d="M176.177,0h64c8.837,0,16,7.163,16,16l0,0c0,8.837-7.163,16-16,16h-64c-8.837,0-16-7.163-16-16l0,0
	C160.177,7.163,167.34,0,176.177,0z"/>
<g>
	<path style="fill:#EFF2FA;" d="M204.777,368c-0.431,0.001-0.862-0.034-1.288-0.104c-4.361-0.707-7.322-4.815-6.616-9.176
		c0.675-4.19,1.015-8.428,1.016-12.672c0-4.418,3.582-8,8-8s8,3.582,8,8c-0.005,5.091-0.412,10.173-1.216,15.2
		C212.059,365.134,208.711,367.997,204.777,368L204.777,368z"/>
	<path style="fill:#EFF2FA;" d="M152.177,433.816c-4.418-0.005-7.996-3.59-7.991-8.009c0.003-3.257,1.981-6.186,4.999-7.407
		c14.911-6.014,27.585-16.511,36.272-30.04c2.488-3.651,7.465-4.593,11.116-2.105c3.521,2.4,4.543,7.139,2.324,10.777
		c-10.467,16.31-25.749,28.958-43.728,36.192C154.22,433.614,153.203,433.815,152.177,433.816z"/>
	<path style="fill:#EFF2FA;" d="M380.345,392c-4.418,0.008-8.006-3.568-8.014-7.986c-0.005-3.112,1.794-5.945,4.614-7.262
		c10.775-5.057,20.258-12.501,27.728-21.768c2.789-3.427,7.828-3.943,11.255-1.154c3.4,2.768,3.939,7.756,1.209,11.186
		c-9.003,11.17-20.434,20.141-33.424,26.232C382.659,391.744,381.509,392,380.345,392L380.345,392z"/>
</g>
<g>
</g>
<g>
</g>
<g>
</g>
<g>
</g>
<g>
</g>
<g>
</g>
<g>
</g>
<g>
</g>
<g>
</g>
<g>
</g>
<g>
</g>
<g>
</g>
<g>
</g>
<g>
</g>
<g>
</g>
</svg>
